<svg xmlns="http://www.w3.org/2000/svg" viewBox="0 0 24 24"><path d="M20.55 13.41C20.33 11 18.67 9.1 16.76 9a8 8 0 0 0-.22-3.65 4.33 4.33 0 0 0-3.71-2.75 1 1 0 0 0-.76.29.92.92 0 0 0-.25.76 1.26 1.26 0 0 1-.23.84 1.27 1.27 0 0 1-.94.29c-2 0-3.77 1.27-4.07 4.33-1.58.33-2.87 1.47-3.13 4.3a4.16 4.16 0 0 0 1.45 8.05h14.2a4.16 4.16 0 0 0 1.45-8zM10 14.1a.94.94 0 0 0-.95-.95H5.49a2.35 2.35 0 0 1 2.05-2.31h1.55a.95.95 0 1 0 0-1.9H8.6a2.29 2.29 0 0 1 2.05-2.31A3 3 0 0 0 13 5.69a2.69 2.69 0 0 0 .57-1A2.52 2.52 0 0 1 14.79 6a5.09 5.09 0 0 1 0 3 .95.95 0 0 0 .16 1.88h1.55c.88 0 1.87.78 2.05 2.31h-2a.95.95 0 0 0 0 1.89h2.55a2.26 2.26 0 0 1 0 4.52H4.9a2.26 2.26 0 0 1 0-4.6h4.19a.94.94 0 0 0 .91-.9z"/></svg>